<svg width="231" height="65" viewBox="0 0 231 65" fill="none" xmlns="http://www.w3.org/2000/svg">
<g clip-path="url(#clip0_40_4)">
<path d="M65.896 14.992L47.968 58.696L34.072 62.368L13.84 13.12L6.424 9.592L9.016 4.408H37.384V8.944L29.104 13.552L44.008 50.056L58.264 14.992L47.68 9.592L50.344 4.408H73.96V8.944L65.896 14.992ZM123.258 61H77.1055V56.392L83.8735 51.064V11.896L75.8095 9.592L78.4015 4.408H122.538L128.154 3.112V21.976L123.618 23.92L114.69 10.6H98.1295V29.032H105.906L111.162 21.256H115.77V41.992L110.514 44.584L105.762 35.152H98.1295V54.808H114.042L124.338 40.048L128.874 41.92V62.296L123.258 61ZM162.877 61H136.309V56.392L143.077 50.56V11.824L135.013 9.592L137.605 4.408H164.173V8.944L157.333 14.848V53.512L165.469 55.744L162.877 61ZM217.209 61.072H170.481V56.464L177.249 51.136V11.608L169.185 9.592L171.777 4.408H198.345V8.944L191.505 14.272V54.808H206.984L218.289 38.608L222.825 40.48V62.368L217.209 61.072Z" fill="url(#paint0_linear_40_4)"/>
</g>
<defs>
<linearGradient id="paint0_linear_40_4" x1="42.5" y1="21.855" x2="195.934" y2="84.6181" gradientUnits="userSpaceOnUse">
<stop offset="0.259005" stop-color="#FD5068"/>
<stop offset="0.979668" stop-color="#9452FF" stop-opacity="0.9"/>
</linearGradient>
<clipPath id="clip0_40_4">
<rect width="231" height="65" fill="white"/>
</clipPath>
</defs>
</svg>
